<svg xmlns="http://www.w3.org/2000/svg" viewBox="0 0 180 180" width="180" height="180">
  <!-- 圆角背景 -->
  <rect width="180" height="180" rx="40" ry="40" fill="#4A90E2"/>
  
  <!-- 小鸭子身体 -->
  <ellipse cx="90" cy="110" rx="35" ry="28" fill="#FFD700"/>
  
  <!-- 小鸭子头部 -->
  <circle cx="90" cy="75" r="22" fill="#FFD700"/>
  
  <!-- 鸭嘴 -->
  <ellipse cx="105" cy="80" rx="12" ry="6" fill="#FF8C00"/>
  
  <!-- 眼睛 -->
  <circle cx="82" cy="68" r="4" fill="#000"/>
  <circle cx="84" cy="66" r="1.5" fill="#FFF"/>
  
  <!-- 天气元素 - 云朵 -->
  <ellipse cx="50" cy="40" rx="18" ry="12" fill="#FFF" opacity="0.9"/>
  <ellipse cx="60" cy="35" rx="12" ry="8" fill="#FFF" opacity="0.9"/>
  
  <!-- 天气元素 - 太阳光芒 -->
  <g stroke="#FFE55C" stroke-width="4" opacity="0.8">
    <line x1="130" y1="45" x2="145" y2="30"/>
    <line x1="140" y1="55" x2="155" y2="55"/>
    <line x1="130" y1="65" x2="145" y2="80"/>
    <line x1="120" y1="35" x2="120" y2="20"/>
  </g>
  
  <!-- 水波纹 -->
  <path d="M 30 140 Q 60 130 90 140 Q 120 150 150 140" stroke="#87CEEB" stroke-width="4" fill="none" opacity="0.7"/>
  <path d="M 35 150 Q 65 145 90 150 Q 115 155 145 150" stroke="#87CEEB" stroke-width="3" fill="none" opacity="0.5"/>
</svg>